<mxfile host="app.diagrams.net" modified="2023-05-18T04:49:03.471Z" agent="Mozilla/5.0 (Macintosh; Intel Mac OS X 10_15_7) AppleWebKit/537.36 (KHTML, like Gecko) Chrome/113.0.0.0 Safari/537.36" etag="gnykoR3AsaqrdthJo5_q" version="21.1.8" type="github">
  <diagram id="07fea595-8f29-1299-0266-81d95cde20df" name="Page-1">
    <mxGraphModel dx="-392" dy="282" grid="1" gridSize="10" guides="1" tooltips="1" connect="1" arrows="1" fold="1" page="1" pageScale="1" pageWidth="1169" pageHeight="827" background="none" math="0" shadow="0">
      <root>
        <mxCell id="0" />
        <mxCell id="1" parent="0" />
        <mxCell id="727" value="" style="edgeStyle=none;html=1;fontColor=#000000;strokeWidth=3;strokeColor=#000000;" parent="1" edge="1">
          <mxGeometry width="100" height="100" relative="1" as="geometry">
            <mxPoint x="2437.5" y="1594.5" as="sourcePoint" />
            <mxPoint x="2438" y="1000" as="targetPoint" />
          </mxGeometry>
        </mxCell>
        <mxCell id="729" value="" style="whiteSpace=wrap;fillColor=#004c99;gradientColor=none;gradientDirection=east;strokeColor=none;html=1;fontColor=#23445d;rotation=0;" parent="1" vertex="1">
          <mxGeometry x="2497.5" y="1093.5" width="120" height="500" as="geometry" />
        </mxCell>
        <mxCell id="730" value="" style="whiteSpace=wrap;fillColor=#F08705;gradientColor=none;gradientDirection=east;strokeColor=none;html=1;fontColor=#23445d;rotation=0;" parent="1" vertex="1">
          <mxGeometry x="2617.5" y="1093.5" width="120" height="500" as="geometry" />
        </mxCell>
        <mxCell id="734" value="" style="edgeStyle=none;html=1;fontColor=#000000;strokeWidth=3;strokeColor=#000000;" parent="1" edge="1">
          <mxGeometry width="100" height="100" relative="1" as="geometry">
            <mxPoint x="2437.5" y="1594.5" as="sourcePoint" />
            <mxPoint x="3357.5" y="1594.5" as="targetPoint" />
          </mxGeometry>
        </mxCell>
        <mxCell id="735" value="Parameter x" style="text;spacingTop=-5;html=1;fontSize=18;fontStyle=0;points=[];strokeColor=none;" parent="1" vertex="1">
          <mxGeometry x="3507" y="1582.5" width="80" height="20" as="geometry" />
        </mxCell>
        <mxCell id="736" value="压缩方式" style="text;spacingTop=-5;align=center;verticalAlign=middle;fontStyle=0;html=1;fontSize=18;points=[];strokeColor=none;" parent="1" vertex="1">
          <mxGeometry x="2497.5" y="1596.5" width="120" height="30" as="geometry" />
        </mxCell>
        <mxCell id="737" value="声道" style="text;spacingTop=-5;align=center;verticalAlign=middle;fontStyle=0;html=1;fontSize=18;points=[];strokeColor=none;" parent="1" vertex="1">
          <mxGeometry x="2617.5" y="1594.5" width="120" height="30" as="geometry" />
        </mxCell>
        <mxCell id="745" value="Parameter y" style="text;spacingTop=-5;html=1;fontSize=18;fontStyle=0;points=[]" parent="1" vertex="1">
          <mxGeometry x="2390" y="954.5" width="80" height="20" as="geometry" />
        </mxCell>
        <mxCell id="746" value="y1" style="text;spacingTop=-5;align=center;verticalAlign=middle;fontStyle=0;html=1;fontSize=18;points=[]" parent="1" vertex="1">
          <mxGeometry x="2405.5" y="1464.5000000000002" width="30" height="129.99999999999977" as="geometry" />
        </mxCell>
        <mxCell id="747" value="y2" style="text;spacingTop=-5;align=center;verticalAlign=middle;fontStyle=0;html=1;fontSize=18;points=[]" parent="1" vertex="1">
          <mxGeometry x="2405.5" y="1334.5" width="30" height="129.99999999999977" as="geometry" />
        </mxCell>
        <mxCell id="748" value="y3" style="text;spacingTop=-5;align=center;verticalAlign=middle;fontStyle=0;html=1;fontSize=18;points=[]" parent="1" vertex="1">
          <mxGeometry x="2405.5" y="1204.5" width="30" height="129.99999999999977" as="geometry" />
        </mxCell>
        <mxCell id="749" value="&lt;font style=&quot;font-size: 30px;&quot;&gt;Diagram title&lt;/font&gt;" style="text;spacingTop=-5;align=center;verticalAlign=middle;fontSize=30;fontStyle=1;html=1;points=[]" parent="1" vertex="1">
          <mxGeometry x="2437.5" y="854.5" width="810" height="45" as="geometry" />
        </mxCell>
        <mxCell id="_kHQajTrvdh6_8uKd3nk-752" value="" style="whiteSpace=wrap;fillColor=#12AAB5;gradientColor=none;gradientDirection=east;strokeColor=none;html=1;fontColor=#23445d;rotation=0;" vertex="1" parent="1">
          <mxGeometry x="2737.5" y="1093.5" width="120" height="500" as="geometry" />
        </mxCell>
        <mxCell id="_kHQajTrvdh6_8uKd3nk-755" value="CDN" style="text;spacingTop=-5;align=center;verticalAlign=middle;fontStyle=0;html=1;fontSize=18;points=[];strokeColor=none;" vertex="1" parent="1">
          <mxGeometry x="2737.5" y="1596.5" width="120" height="30" as="geometry" />
        </mxCell>
        <mxCell id="_kHQajTrvdh6_8uKd3nk-757" value="" style="group" vertex="1" connectable="0" parent="1">
          <mxGeometry x="3387" y="880" width="120" height="30.000000000000114" as="geometry" />
        </mxCell>
        <mxCell id="741" value="" style="whiteSpace=wrap;fillColor=#99CCFF;gradientColor=none;gradientDirection=east;strokeColor=none;html=1;fontColor=#23445d;" parent="_kHQajTrvdh6_8uKd3nk-757" vertex="1">
          <mxGeometry width="35.000000000000114" height="30.000000000000114" as="geometry" />
        </mxCell>
        <mxCell id="742" value="OPUS" style="text;spacingTop=-5;html=1;points=[];fontSize=15;" parent="_kHQajTrvdh6_8uKd3nk-757" vertex="1">
          <mxGeometry x="40" y="5.000000000000114" width="80" height="20" as="geometry" />
        </mxCell>
        <mxCell id="_kHQajTrvdh6_8uKd3nk-758" value="" style="group" vertex="1" connectable="0" parent="1">
          <mxGeometry x="3237" y="880" width="120" height="30.000000000000114" as="geometry" />
        </mxCell>
        <mxCell id="_kHQajTrvdh6_8uKd3nk-759" value="" style="whiteSpace=wrap;fillColor=#004C99;gradientColor=none;gradientDirection=east;strokeColor=none;html=1;fontColor=#23445d;" vertex="1" parent="_kHQajTrvdh6_8uKd3nk-758">
          <mxGeometry width="35.000000000000114" height="30.000000000000114" as="geometry" />
        </mxCell>
        <mxCell id="_kHQajTrvdh6_8uKd3nk-760" value="MP3" style="text;spacingTop=-5;html=1;points=[];fontSize=15;" vertex="1" parent="_kHQajTrvdh6_8uKd3nk-758">
          <mxGeometry x="40" y="5.000000000000114" width="80" height="20" as="geometry" />
        </mxCell>
        <mxCell id="_kHQajTrvdh6_8uKd3nk-762" value="" style="group" vertex="1" connectable="0" parent="1">
          <mxGeometry x="3237" y="930" width="120" height="30.000000000000114" as="geometry" />
        </mxCell>
        <mxCell id="_kHQajTrvdh6_8uKd3nk-763" value="" style="whiteSpace=wrap;fillColor=#f08706;gradientColor=none;gradientDirection=east;strokeColor=none;html=1;fontColor=#23445d;" vertex="1" parent="_kHQajTrvdh6_8uKd3nk-762">
          <mxGeometry width="35.000000000000114" height="30.000000000000114" as="geometry" />
        </mxCell>
        <mxCell id="_kHQajTrvdh6_8uKd3nk-764" value="双声道" style="text;spacingTop=-5;html=1;points=[];fontSize=15;" vertex="1" parent="_kHQajTrvdh6_8uKd3nk-762">
          <mxGeometry x="40" y="5.000000000000114" width="80" height="20" as="geometry" />
        </mxCell>
        <mxCell id="_kHQajTrvdh6_8uKd3nk-769" value="" style="group" vertex="1" connectable="0" parent="1">
          <mxGeometry x="3387" y="930" width="120" height="30.000000000000114" as="geometry" />
        </mxCell>
        <mxCell id="_kHQajTrvdh6_8uKd3nk-770" value="" style="whiteSpace=wrap;fillColor=#FFCC99;gradientColor=none;gradientDirection=east;strokeColor=none;html=1;fontColor=#23445d;" vertex="1" parent="_kHQajTrvdh6_8uKd3nk-769">
          <mxGeometry width="35.000000000000114" height="30.000000000000114" as="geometry" />
        </mxCell>
        <mxCell id="_kHQajTrvdh6_8uKd3nk-771" value="单声道" style="text;spacingTop=-5;html=1;points=[];fontSize=15;" vertex="1" parent="_kHQajTrvdh6_8uKd3nk-769">
          <mxGeometry x="40" y="5.000000000000114" width="80" height="20" as="geometry" />
        </mxCell>
        <mxCell id="_kHQajTrvdh6_8uKd3nk-772" value="" style="group" vertex="1" connectable="0" parent="1">
          <mxGeometry x="3237" y="980" width="120" height="30.000000000000114" as="geometry" />
        </mxCell>
        <mxCell id="_kHQajTrvdh6_8uKd3nk-773" value="" style="whiteSpace=wrap;fillColor=#67AB9F;gradientColor=none;gradientDirection=east;strokeColor=none;html=1;fontColor=#23445d;" vertex="1" parent="_kHQajTrvdh6_8uKd3nk-772">
          <mxGeometry width="35.000000000000114" height="30.000000000000114" as="geometry" />
        </mxCell>
        <mxCell id="_kHQajTrvdh6_8uKd3nk-774" value="CDN" style="text;spacingTop=-5;html=1;points=[];fontSize=15;" vertex="1" parent="_kHQajTrvdh6_8uKd3nk-772">
          <mxGeometry x="40" y="5" width="80" height="25" as="geometry" />
        </mxCell>
        <mxCell id="_kHQajTrvdh6_8uKd3nk-778" value="" style="group" vertex="1" connectable="0" parent="1">
          <mxGeometry x="3387" y="980" width="120" height="30.000000000000114" as="geometry" />
        </mxCell>
        <mxCell id="_kHQajTrvdh6_8uKd3nk-779" value="" style="whiteSpace=wrap;fillColor=#D5E8D4;gradientColor=none;gradientDirection=east;strokeColor=none;html=1;fontColor=#23445d;" vertex="1" parent="_kHQajTrvdh6_8uKd3nk-778">
          <mxGeometry width="35.000000000000114" height="30.000000000000114" as="geometry" />
        </mxCell>
        <mxCell id="_kHQajTrvdh6_8uKd3nk-780" value="XCDN" style="text;spacingTop=-5;html=1;points=[];fontSize=15;" vertex="1" parent="_kHQajTrvdh6_8uKd3nk-778">
          <mxGeometry x="40" y="5" width="80" height="25" as="geometry" />
        </mxCell>
        <mxCell id="_kHQajTrvdh6_8uKd3nk-781" value="" style="whiteSpace=wrap;fillColor=#004c99;gradientColor=none;gradientDirection=east;strokeColor=none;html=1;fontColor=#23445d;rotation=0;" vertex="1" parent="1">
          <mxGeometry x="2980" y="1443.5" width="120" height="150" as="geometry" />
        </mxCell>
        <mxCell id="_kHQajTrvdh6_8uKd3nk-782" value="" style="whiteSpace=wrap;fillColor=#F08705;gradientColor=none;gradientDirection=east;strokeColor=none;html=1;fontColor=#23445d;rotation=0;" vertex="1" parent="1">
          <mxGeometry x="3100" y="1443.5" width="120" height="150" as="geometry" />
        </mxCell>
        <mxCell id="_kHQajTrvdh6_8uKd3nk-783" value="压缩方式" style="text;spacingTop=-5;align=center;verticalAlign=middle;fontStyle=0;html=1;fontSize=18;points=[];strokeColor=none;" vertex="1" parent="1">
          <mxGeometry x="2980" y="1596.5" width="120" height="30" as="geometry" />
        </mxCell>
        <mxCell id="_kHQajTrvdh6_8uKd3nk-784" value="声道" style="text;spacingTop=-5;align=center;verticalAlign=middle;fontStyle=0;html=1;fontSize=18;points=[];strokeColor=none;" vertex="1" parent="1">
          <mxGeometry x="3100" y="1594.5" width="120" height="30" as="geometry" />
        </mxCell>
        <mxCell id="_kHQajTrvdh6_8uKd3nk-785" value="" style="whiteSpace=wrap;fillColor=#12AAB5;gradientColor=none;gradientDirection=east;strokeColor=none;html=1;fontColor=#23445d;rotation=0;" vertex="1" parent="1">
          <mxGeometry x="3220" y="1443.5" width="120" height="150" as="geometry" />
        </mxCell>
        <mxCell id="_kHQajTrvdh6_8uKd3nk-786" value="CDN" style="text;spacingTop=-5;align=center;verticalAlign=middle;fontStyle=0;html=1;fontSize=18;points=[];strokeColor=none;" vertex="1" parent="1">
          <mxGeometry x="3220" y="1596.5" width="120" height="30" as="geometry" />
        </mxCell>
        <mxCell id="_kHQajTrvdh6_8uKd3nk-787" value="" style="whiteSpace=wrap;fillColor=#9accff;gradientColor=none;gradientDirection=east;strokeColor=none;html=1;fontColor=#23445d;rotation=0;" vertex="1" parent="1">
          <mxGeometry x="2980" y="1485.5" width="120" height="108" as="geometry" />
        </mxCell>
        <mxCell id="_kHQajTrvdh6_8uKd3nk-788" value="" style="whiteSpace=wrap;fillColor=#ffcd9a;gradientColor=none;gradientDirection=east;strokeColor=none;html=1;fontColor=#23445d;rotation=0;" vertex="1" parent="1">
          <mxGeometry x="3100" y="1451" width="120" height="142.5" as="geometry" />
        </mxCell>
        <mxCell id="_kHQajTrvdh6_8uKd3nk-789" value="" style="whiteSpace=wrap;fillColor=#d5e9d4;gradientColor=none;gradientDirection=east;strokeColor=none;html=1;fontColor=#23445d;rotation=0;" vertex="1" parent="1">
          <mxGeometry x="3220" y="1479.5" width="120" height="114" as="geometry" />
        </mxCell>
      </root>
    </mxGraphModel>
  </diagram>
</mxfile>
